<svg viewBox="-50 -50 600 600" xml:space="preserve" xmlns="http://www.w3.org/2000/svg">
  <rect x="-50" y="-50" rx="0" fill="#fff"/>
  <g stroke-linecap="round" stroke-linejoin="round"/>
  <path d="M367.679 246.833c-.531-12.609.588-25.654-2.368-37.986-1.382-3.791-4.184.511-6.413 1.041-4.161 4.267-12.565 6.238-13.146 12.717-.524 14.991-1.168 30.556.048 45.341-.256 155.461 19.482 119.776-129.649 128.882-26.317.919-52.651 1.739-78.963 2.626-16.608-1.275-53.481 9.018-60.088-11.189-2.655-45.337-1.478-91.005-3.291-136.479.204-34.898-3.914-70.04-1.535-104.8 3.226-24.4 8.242-20.229 30.082-22.084 26.483-1.403 52.952-3.164 79.47-3.758 34.934-.781 69.826-3.017 104.755-3.289 17.011.55 41.179-5.384 55.709 4.213.979 1.101 2.618.592 3.615-.271 3.858-4.829 13.071-11.129 11.308-17.687-4.346-5.641-10.068-8.916-17.037-10.118-39.561-.225-79.248 1.59-118.855 2.063-48.609 1.286-97.324.978-145.829 4.682-28.279 2.629-26.965 32.887-26.321 54.499.752 80.147 3.524 160.258 5.465 240.383.598 25.755 26.017 30.674 47.021 28.662 31.923.35 63.834-.558 95.749-1.108 202.093-5.466 170.098 24.61 170.273-176.34" fill="#3F3756"/>
  <path d="M449.635 117.379c-6.574-12.733-14.071-24.909-21.967-36.85-2.997-6.499-9.362-6.329-14.768-2.732-73.571 44.542-132.338 114.15-189.97 173.683-22.42-31.589-44.424-64.116-71.873-91.594-5.13-5.857-10.137 3.101-14.566 5.699-15.546 13.494-31.881 26.214-46.55 40.66-4.867 5.32 5.123 11.79 7.768 16.236 33.41 36.191 64.959 73.977 96.458 111.811 14.845 14.243 22.046 39.069 37.899 9.414 56.253-74.899 118.664-146.302 195.214-201.163 6.725-6.633 29.707-14.119 22.355-25.164" fill="#3F3756"/>
  <path d="M363.669 212.248c4.902 275.049 38.635 192.045-291.396 207.75L57.96 402.331l-5.667-281.37 17.917-16.296 264.333-6.047 12.269 1.819 7.188 7.187-9.232 10.874-11.476-4.574-249.667 8.908-10.333 6.292-3.375 12.75 3.625 242.125 4.583 13.417 14.167 4.667 23.25.167 203.75-6.5 16.333-2.75 11.186-14.417c2.602-3.175 1.2-151.257 1.509-158.583.003-.002 14.224-11.127 15.349-7.752" fill="#DAB983"/>
  <path d="m91.961 209.498 126.667 145c24.314-28.484 72.224-97.423 132.683-154.546 38.984-33.787 96.234-77.204 96.234-77.204l-25.75-42.583s-82.106 59.904-112.454 88.455-86.041 87.423-86.041 87.423c-4.66-6.425-62.336-84.392-75.88-93.169z" fill="#A7943F"/>
  <path d="M347.874 271.406c-.053-.845.189-2.272-.608-2.791.279-14.802-.347-29.611.385-44.41.117-2.374.471-4.598 2.169-6.403-13.549 6.172-23.709 19.774-33.579 30.884-29.918 35.143-58.954 71.213-85.627 108.712-3.986 3.731-9.226 14.64-15.351 9.163-11.095-12.707-23.026-24.68-33.794-37.69-20.132-24.133-40.661-47.927-61.801-71.202-14.178-15.228-26.694-31.991-41.918-46.234-.593-.546-.824-.954-.113-1.562 12.281-13.499 26.196-25.361 39.932-37.381 9.09-7.903 18.087-15.91 28.037-22.754.931-.64 1.421-.679 2.191.16 10.869 11.092 20.764 23.025 30.841 34.81 15.662 17.983 30.663 36.599 43.705 56.575 1.07 1.73 2.726 2.075 4.077.929 38.415-40.411 74.538-83.245 117.633-118.97.75-.429 1.288-1.08 1.82-1.736-13.68-9.983-32.115-5.538-48.058-5.782-36.034.832-72.04 2.288-108.06 3.578-25.43.58-50.822 1.798-76.216 3.241-10.512.569-21.041.853-31.507 2.169-11.738.663-12.042 13.019-12.458 21.996-.549 80.034 3.955 160.473 4.43 240.628 2.455 20.959 29.736 15.735 44.781 15.823 29.938-1.359 59.902-2.189 89.852-3.263 157.337-11.002 139.099 30.924 139.237-128.49" fill="#5887A2"/>
  <path d="M348.737 218.802c-1.676 1.782-2.025 3.978-2.141 6.322-.724 14.631-.103 29.272-.381 43.906-17.303 17.364-32.116 37.111-47.639 56.065-11.202 13.241-23.649 25.37-33.804 39.511-9.03 14.348-27.224 1.473-33.655-8.326 26.676-36.76 54.868-72.434 84.47-106.985 9.745-10.978 19.775-24.398 33.15-30.493" fill="#3B6985"/>
  <path d="M72.274 146.987c.808-8.204.956-20.369 11.67-21.172 10.333-1.299 20.727-1.58 31.106-2.142 25.07-1.425 50.139-2.627 75.245-3.2 35.561-1.274 71.109-2.712 106.684-3.532 15.752.238 33.929-4.148 47.446 5.707-.526.648-1.057 1.291-1.797 1.714-17.794-5.377-36.753-1.44-55.03-1.301-32.504.508-64.964 3.244-97.457 2.8-30.53 1.33-61.175 1.894-91.543 5.535-13.099.627-19.336 3.561-25.354 15.501-.237.253-.549 1.232-.97.09" fill="#739EB5"/>
  <path d="M359.715 297.207c-.016-13.73-.041-27.31-.051-41.059l-9.678 9.327c-.821-14.39.215-28.814-.765-43.2 1.276-4.32 7.43-6.147 10.589-9.509 1.053 28.078.001 56.395-.095 84.441" fill="#CBA065"/>
  <path d="M164.994 114.891c-8.16.249 2.854-7.75 4.534-10.155 6.682-.446 13.297-.637 19.995-.291-10.092 12.856-9.468 9.451-24.529 10.446m-26.137-9.212c-2.097 4.403-5.732 7.7-8.826 11.36-4.185.764-8.431.28-12.606.826 2.032-4.777 5.939-8.313 9.666-11.765 3.932-.403 7.84-.139 11.766-.421m81.748 7.878h-6.804c4.396-4.193 8.195-10.4 14.618-9.742.719.063 1.545.285 2.175-.373 1.3.236 8.622-1.075 5.826 1.503-3.313 2.472-5.634 7.669-9.904 8.159-1.014.055-2.1-.369-3.036.356z" fill="#E2C89A"/>
  <path d="M287.809 111.168c-4.632.379 3.658-5.888 4.216-7.589 2.309-2.478 5.068-.82 8.539-1.292-3.973 3.993-6.325 9.686-12.755 8.881m18.276-9.371 3.255.147c-1.741 3.355-4.623 5.561-6.919 8.249-1.117.137-1.969.145-3.155-.033 1.633-3.162 4.067-5.596 6.088-8.326z" fill="#E0C494"/>
  <path d="M134.507 106.419c-2.443.732-4.944.151-7.411.332l-.001-.243z" fill="#DAB984"/>
  <path d="M119.685 116.615c1.153-.64 2.392-.219 3.592-.292-1.165.48-2.387.285-3.592.292" fill="#DAB983"/>
  <path d="M430.721 101.723c-.547 9.62-.2 19.832-2.506 29.113l-1.856 1.349c-1.447-4.678 1.241-11.508 1.076-16.881.78-5.508-.059-11.334 1.453-16.686.722.97 1.395 1.968 1.833 3.105" fill="#B9A95B"/>
  <path d="M419.961 80.165s-41 29-74.429 54-123.571 123.333-123.571 123.333l-74.542-94.625-54.125 44.5 5.541 4.337c8.002-5.724 16.812-14.151 25.349-19.182 6.834-4.231 12.728-9.793 19.602-13.987 3.462-2.112 3.616-2.145 6.1 1.058 19.302 23.616 35.954 49.16 55.143 72.824 4.862 5.218 10.885 18.167 19.011 15.814 2.523-2.381 5.6-4.085 7.897-6.732 19.818-20.856 40.134-41.737 61.04-61.336-4.334 21.59-8.907 43.299-13.098 64.974-.227 1.17-.931 2.771.59 3.828 5.533-7.413 13.343-13.633 17.467-21.843 3.594-20.212 6.941-40.464 9.914-60.776.671-3.68 4.639-5.288 6.644-8.492-4.601 20.575-9.176 41.348-12.044 62.335-.132.816-.679 1.898.695 2.324 4.609-3.301 4.82-8.757 5.581-13.882 2.96-18.06 6.246-36.057 10.473-53.871 6.179-10.243 17.123-17.338 25.563-25.954-3.022 15.411-5.682 30.879-7.122 46.565.072 3.32-2.075 8.837.029 11.355l7.101-6.781c2.205-7.85 1.898-16.479 3.202-24.595 1.119-10.301 3.137-20.48 4.319-30.769.366-3.184 2.428-4.573 4.65-6.207-2.633 17.749-4.256 35.834-6.392 53.733-.077.669-.541 1.539.554 1.903 7.241-5.466 4.442-27.06 6.853-36.485 1.388-7.699.653-16.614 4.098-23.594 14.475-12.406 29.859-23.824 46.793-32.659-1.444 15.168-4.557 30.95-3.268 46.143 8.88-7.05 14.742-7.654 14.485-20.451.207-11.652 6.688-28.107 3.072-38.579l.001-.001 5.753 8.358v4.975l1.839.532.005-5.756z" fill="#B9A95C"/>
  <path d="M449.635 117.379c-6.574-12.733-14.071-24.909-21.967-36.85-2.997-6.499-9.362-6.329-14.768-2.732-73.571 44.542-132.338 114.15-189.97 173.683-22.42-31.589-44.424-64.116-71.873-91.594-5.13-5.857-10.137 3.101-14.566 5.699-15.546 13.494-31.881 26.214-46.55 40.66-4.867 5.32 5.123 11.79 7.768 16.236 33.41 36.191 64.959 73.977 96.458 111.811 14.845 14.243 22.046 39.069 37.899 9.414 56.253-74.899 118.664-146.302 195.214-201.163 6.725-6.633 29.707-14.119 22.355-25.164m-8.338 4.542c-11.764 7.929-24.483 16.819-35.718 25.501-56.174 44.362-90.877 81.021-125.108 121.551-20.731 25.944-41.627 51.843-60.848 78.932-.786 1.167-1.234.62-1.817-.052-39.1-45.908-76.499-93.216-118.97-136.142-7.993-1.995 49.435-45.192 50.003-43.911 23.695 27.704 44.996 57.46 65.949 87.29 2.256 2.387 3.95 8.531 7.724 7.862 45.025-44.485 86.908-92.939 136.274-133.145 18.99-15.653 38.552-30.555 59.22-43.959 3.272-2.405 21.589 30.853 23.497 34.438.322.597.58 1.105-.206 1.635m-82.025 132.3v-.148l-.066.063c.025.022.045.055.066.085" fill="#3F3756"/>
  <path d="M367.679 246.833c-.531-12.609.588-25.654-2.368-37.986-1.382-3.791-4.184.511-6.413 1.041-4.161 4.267-12.565 6.238-13.146 12.717-.524 14.991-1.168 30.556.048 45.341-.256 155.461 19.482 119.776-129.649 128.882-26.317.919-52.651 1.739-78.963 2.626-16.608-1.275-53.481 9.018-60.088-11.189-2.655-45.337-1.478-91.005-3.291-136.479.204-34.898-3.914-70.04-1.535-104.8 3.226-24.4 8.242-20.229 30.082-22.084 26.483-1.403 52.952-3.164 79.47-3.758 34.934-.781 69.826-3.017 104.755-3.289 17.011.55 41.179-5.384 55.709 4.213.979 1.101 2.618.592 3.615-.271 3.858-4.829 13.071-11.129 11.308-17.687-4.346-5.641-10.068-8.916-17.037-10.118-39.561-.225-79.248 1.59-118.855 2.063-48.609 1.286-97.324.978-145.829 4.682-28.279 2.629-26.965 32.887-26.321 54.499.752 80.147 3.524 160.258 5.465 240.383.598 25.755 26.017 30.674 47.021 28.662 31.923.35 63.834-.558 95.749-1.108 202.093-5.466 170.098 24.61 170.273-176.34m-7.804-18.885c-.557 34.621-.438 69.173-.544 103.786.088 17.487-.122 34.985.288 52.466.738 16.579-16.156 29.134-31.786 27.398-69.232.909-138.465 2.212-207.678 4.117-66.064 6.163-56.19-4.696-58.166-63.015-1.383-57.558-2.632-115.124-4.59-172.667-3.819-73.784-5.462-75.15 69.694-73.526 14.612-.085 29.209-.869 43.824-.828 5.032-.434 10.079-.33 15.12-.386 14.354-.655 28.796-.745 43.179-.997l3.469-.064c23.902-.771 47.882-1.235 71.816-1.743 7.841.555 46.051-4.903 45.229 5.487-1.805 1.51-3.008 6.568-5.741 5.609-12.299-7.68-28.177-3.973-41.954-4.066l-1.334.114c-25.716 1.888-51.666 1.719-77.468 3.089-31.181 1.679-62.469 1.109-93.666 3.229-3.527.485-7.066.549-10.603.695-11.634 1.303-23.332 1.935-34.915 3.469-15.896 2.345-16.039 19.493-16.332 32.299-.219 16.254-.068 32.509.114 48.763.865 59.575 1.489 119.165 3.447 178.716-.273 33.219 32.702 22.12 54.885 23.622 60.437-1.557 120.867-3.405 181.295-5.291 31.484 1.791 44.756-9.153 42.936-41.464-.385-31.382.123-62.78.025-94.156-.751-13.163.196-26.357-.7-39.516 1.167-3.952 6.797-5.623 9.686-8.698.751 4.572.675 9.074.47 13.558" fill="#3F3756"/>
  <path d="M134.507 106.419c-.235.07-.471.119-.707.167.239-.014.477-.049.707-.167" fill="#3F3756"/>
</svg>

